{"title":"The Green Hornet 2011 XViD BRRiP DTRG - SAFCuk009","uid":6289964,"size":1735398522,"categoryP":"video","categoryS":"movies","magnet":"?xt=urn:btih:29b0d4efb48363ca5ca2904d0e49e57f55a584d0&amp;dn=The+Green+Hornet+2011+XViD+BRRiP+DTRG+-+SAFCuk009&amp;tr=udp%3A%2F%2Ftracker.openbittorrent.com%3A80&amp;tr=udp%3A%2F%2Fopen.demonii.com%3A1337&amp;tr=udp%3A%2F%2Ftracker.coppersurfer.tk%3A6969&amp;tr=udp%3A%2F%2Fexodus.desync.com%3A6969","seeders":1,"leechers":0,"uploader":"SAFCukO09","files":3,"time":1301763087,"description":"\n\n\nFormat                           : AVI\nFormat/Info                      : Audio Video Interleave\nFile size                        : 1.62 GiB\nDuration                         : 1h 56mn\nOverall bit rate                 : 1 990 Kbps\nWriting application              : VirtualDubMod 1.5.10.3 | www.virtualdub-fr.org || (build 2550/release)\nWriting library                  : VirtualDubMod build 2550/release\n\nVideo\nID                               : 0\nFormat                           : MPEG-4 Visual\nFormat profile                   : Advanced Simple@L5\nFormat settings, BVOP            : Yes\nFormat settings, QPel            : No\nFormat settings, GMC             : No warppoints\nFormat settings, Matrix          : Custom\nCodec ID                         : XVID\nCodec ID/Hint                    : XviD\nDuration                         : 1h 56mn\nBit rate                         : 1 597 Kbps\nWidth                            : 720 pixels\nHeight                           : 304 pixels\nDisplay aspect ratio             : 2.35:1\nFrame rate                       : 23.976 fps\nColor space                      : YUV\nChroma subsampling               : 4:2:0\nBit depth                        : 8 bits\nScan type                        : Progressive\nBits/(Pixel*Frame)               : 0.304\nStream size                      : 1.30 GiB (80%)\nWriting library                  : XviD 1.2.1 (UTC 2008-12-04)\n\nAudio\nID                               : 1\nFormat                           : AC-3\nFormat/Info                      : Audio Coding 3\nMode extension                   : CM (complete main)\nCodec ID                         : 2000\nDuration                         : 1h 56mn\nBit rate mode                    : Constant\nBit rate                         : 384 Kbps\nChannel(s)                       : 6 channels\nChannel positions                : Front: L C R, Side: L R, LFE\nSampling rate                    : 48.0 KHz\nBit depth                        : 16 bits\nStream size                      : 319 MiB (19%)\nAlignment                        : Split accross interleaves\nInterleave, duration             : 42 ms (1.00 video frame)\nInterleave, preload duration     : 500 ms\n\n\n\n &lt;a href=&quot;\nhttp://www.imdb.com/title/tt0990407/&quot; rel=&quot;nofollow&quot; target=&quot;_NEW&quot;&gt;\nhttp://www.imdb.com/title/tt0990407/&lt;/a&gt;\n\n\n\n\n\n\n\nUsers: 6.3/10 (21,613 votes) 273 reviews | Critics: 275 reviews Metascore: 39/100 (based on 39 reviews from Metacritic.com)\n\nFollowing the death of his father, Britt Reid, heir to his father's large company, teams up with his late dad's assistant Kato to become a masked crime fighting team.\nDirector:\nMichel Gondry\nWriters:\nSeth Rogen, Evan Goldberg, and 1 more credit Ã‚Â»\nStars:\nSeth Rogen, Jay Chou and Christoph Waltz\n\n\n\n\n\n\n\n\n &lt;a href=&quot;\nhttp://img151.imageshack.us/img151/2318/vlcsnap2011040214h41m35.png&quot; rel=&quot;nofollow&quot; target=&quot;_NEW&quot;&gt;\nhttp://img151.imageshack.us/img151/2318/vlcsnap2011040214h41m35.png&lt;/a&gt; &lt;a href=&quot;\nhttp://img638.imageshack.us/img638/2279/vlcsnap2011040214h41m40.png&quot; rel=&quot;nofollow&quot; target=&quot;_NEW&quot;&gt;\nhttp://img638.imageshack.us/img638/2279/vlcsnap2011040214h41m40.png&lt;/a&gt; &lt;a href=&quot;\nhttp://img27.imageshack.us/img27/9985/vlcsnap2011040214h41m16.png&quot; rel=&quot;nofollow&quot; target=&quot;_NEW&quot;&gt;\nhttp://img27.imageshack.us/img27/9985/vlcsnap2011040214h41m16.png&lt;/a&gt;\n\n\nSource Used\n\nSource: .DTS.x264-CHD ........Thanks \n\n\n\n\nGreetz to Imagine ,Flawl3ss,DiLLoN,BDK,NOiR,TOXiCiNK,THC,Ez,Rx,Boobyblue\n\n\n\n","torrent":{"xt":"urn:btih:29b0d4efb48363ca5ca2904d0e49e57f55a584d0","amp;dn":"The+Green+Hornet+2011+XViD+BRRiP+DTRG+-+SAFCuk009","amp;tr":["udp%3A%2F%2Ftracker.openbittorrent.com%3A80","udp%3A%2F%2Fopen.demonii.com%3A1337","udp%3A%2F%2Ftracker.coppersurfer.tk%3A6969","udp%3A%2F%2Fexodus.desync.com%3A6969"],"infoHash":"29b0d4efb48363ca5ca2904d0e49e57f55a584d0","infoHashBuffer":{"type":"Buffer","data":[41,176,212,239,180,131,99,202,92,162,144,77,14,73,229,127,85,165,132,208]},"announce":[],"urlList":[]}}